<svg xmlns="http://www.w3.org/2000/svg" xmlns:xlink="http://www.w3.org/1999/xlink" viewBox="0,0,256,256" width="480px" height="480px"><g fill="none" fill-rule="nonzero" stroke="none" stroke-width="1" stroke-linecap="butt" stroke-linejoin="miter" stroke-miterlimit="10" stroke-dasharray="" stroke-dashoffset="0" font-family="none" font-weight="none" font-size="none" text-anchor="none" style="mix-blend-mode: normal"><g transform="scale(6.4,6.4)"><path d="M1.566,35.793l1.408,-4.564l11.824,-11.825l-0.592,-0.591c-0.419,-0.418 -0.648,-0.974 -0.648,-1.565c0,-0.591 0.229,-1.147 0.648,-1.566l0.961,-0.962l-0.025,-0.238c-0.048,-0.444 -0.071,-0.859 -0.071,-1.267c0,-6.459 5.255,-11.714 11.714,-11.714l0.333,0.005c6.104,0.168 11.208,5.272 11.377,11.376c0.089,3.195 -1.087,6.213 -3.312,8.5c-2.225,2.288 -5.207,3.547 -8.397,3.547c-0.408,0 -0.822,-0.023 -1.268,-0.071l-0.238,-0.026l-0.961,0.961c-0.419,0.418 -0.975,0.648 -1.566,0.648c-0.591,0 -1.147,-0.23 -1.565,-0.648l-0.592,-0.592l-2.299,2.299h-3.797v3.797l-1.203,1.203h-3.797v3.797l-0.738,0.738l-4.553,1.398zM26.971,5.5c-2.012,0 -3.902,0.783 -5.324,2.206l-0.354,0.354l10.648,10.648l0.354,-0.354c1.422,-1.422 2.205,-3.313 2.205,-5.324c0,-2.011 -0.783,-3.902 -2.205,-5.324c-1.422,-1.423 -3.313,-2.206 -5.324,-2.206z" fill="#cbcbc8"></path><path d="M26.786,2c0.106,0 0.212,0.001 0.318,0.004c5.844,0.162 10.73,5.047 10.891,10.891c0.085,3.058 -1.041,5.948 -3.17,8.137c-2.13,2.19 -4.985,3.396 -8.039,3.396c-0.39,0 -0.787,-0.022 -1.214,-0.068l-0.476,-0.051l-0.338,0.338l-0.792,0.792c-0.324,0.324 -0.754,0.502 -1.212,0.502c-0.458,0 -0.888,-0.178 -1.212,-0.502l-0.238,-0.238l-0.707,-0.707l-0.707,0.707l-1.8,1.799h-3.09h-1v1v3.09l-0.91,0.91h-3.09h-1v1v3.09l-0.504,0.504l-4.147,1.274l-2.216,-2.215l1.282,-4.158l11.383,-11.383l0.707,-0.707l-0.707,-0.707l-0.238,-0.238c-0.324,-0.324 -0.502,-0.754 -0.502,-1.212c0,-0.458 0.178,-0.888 0.502,-1.212l0.792,-0.792l0.338,-0.338l-0.051,-0.476c-0.046,-0.427 -0.068,-0.824 -0.068,-1.214c0,-6.185 5.031,-11.216 11.215,-11.216M31.941,19.414l0.707,-0.707c1.517,-1.516 2.352,-3.533 2.352,-5.678c0,-2.145 -0.835,-4.161 -2.352,-5.678c-1.516,-1.516 -3.533,-2.351 -5.677,-2.351c-2.144,0 -4.161,0.835 -5.678,2.352l-0.707,0.707l0.707,0.707l9.941,9.941l0.707,0.707M26.786,1c-6.746,0 -12.215,5.468 -12.215,12.214c0,0.447 0.027,0.887 0.074,1.321l-0.792,0.792c-1.06,1.06 -1.06,2.779 0,3.839l0.238,0.238l-11.558,11.559l-1.533,4.97l3.068,3.067l4.96,-1.524l0.972,-0.972v-3.504h3.504l1.496,-1.496v-3.504h3.504l2.091,-2.091l0.238,0.238c0.53,0.53 1.225,0.795 1.919,0.795c0.695,0 1.389,-0.265 1.919,-0.795l0.792,-0.792c0.434,0.047 0.874,0.074 1.321,0.074c6.861,0 12.401,-5.657 12.209,-12.561c-0.177,-6.374 -5.49,-11.687 -11.863,-11.863c-0.114,-0.003 -0.23,-0.005 -0.344,-0.005zM31.941,18l-9.941,-9.941c1.373,-1.373 3.172,-2.059 4.971,-2.059c1.799,0 3.598,0.686 4.971,2.059c2.744,2.745 2.744,7.196 -0.001,9.941z" fill="#666666"></path><path transform="translate(-16.13193,15.95504) rotate(-45.001)" d="M3.306,26.949h15.775v1h-15.775z" fill="#666666"></path><path transform="translate(-10.55961,18.96549) rotate(-45.001)" d="M17.114,18.465h1v7.526h-1z" fill="#666666"></path></g></g></svg>