<svg xmlns="http://www.w3.org/2000/svg" xmlns:xlink="http://www.w3.org/1999/xlink" width="1920" zoomAndPan="magnify" viewBox="0 0 1440 809.999993" height="1080" preserveAspectRatio="xMidYMid meet" version="1.0"><defs><clipPath id="4e5d9a56bc"><path d="M 500 403 L 777 403 L 777 538.5 L 500 538.5 Z M 500 403 " clip-rule="nonzero"/></clipPath><clipPath id="bc746360aa"><path d="M 595 450 L 801 450 L 801 538.5 L 595 538.5 Z M 595 450 " clip-rule="nonzero"/></clipPath><clipPath id="7f840d8957"><path d="M 703 271.5 L 940 271.5 L 940 436 L 703 436 Z M 703 271.5 " clip-rule="nonzero"/></clipPath></defs><path fill="#fcb856" d="M 815.3125 463.996094 L 815.308594 463.996094 C 815.109375 463.335938 814.878906 462.6875 814.613281 462.054688 C 814.347656 461.417969 814.054688 460.796875 813.730469 460.1875 C 813.402344 459.582031 813.050781 458.992188 812.667969 458.421875 C 812.28125 457.847656 811.871094 457.296875 811.433594 456.765625 C 810.996094 456.230469 810.535156 455.722656 810.046875 455.238281 C 809.558594 454.75 809.046875 454.289062 808.515625 453.851562 C 807.984375 453.414062 807.429688 453.007812 806.855469 452.625 C 806.28125 452.242188 805.691406 451.890625 805.082031 451.566406 C 804.476562 451.242188 803.851562 450.949219 803.214844 450.683594 C 802.578125 450.421875 801.929688 450.191406 801.269531 449.992188 C 800.609375 449.792969 799.941406 449.625 799.265625 449.492188 C 798.589844 449.355469 797.910156 449.257812 797.222656 449.1875 C 796.539062 449.121094 795.847656 449.089844 795.160156 449.089844 C 794.472656 449.089844 793.785156 449.125 793.097656 449.191406 C 792.410156 449.257812 791.730469 449.359375 791.054688 449.496094 C 790.378906 449.628906 789.710938 449.796875 789.050781 449.996094 L 769.496094 455.933594 L 745.472656 463.226562 L 709.257812 474.222656 L 682.089844 482.46875 L 682.035156 482.453125 C 683.082031 482.113281 684.09375 481.691406 685.074219 481.1875 C 686.054688 480.6875 686.988281 480.113281 687.878906 479.46875 C 688.769531 478.820312 689.601562 478.105469 690.378906 477.328125 C 691.15625 476.550781 691.871094 475.71875 692.515625 474.828125 C 693.164062 473.9375 693.738281 473.003906 694.238281 472.023438 C 694.738281 471.042969 695.15625 470.03125 695.496094 468.988281 C 695.839844 467.941406 696.097656 466.875 696.269531 465.789062 C 696.441406 464.703125 696.53125 463.613281 696.53125 462.511719 C 696.535156 461.414062 696.449219 460.320312 696.28125 459.234375 C 696.109375 458.148438 695.859375 457.082031 695.519531 456.035156 C 695.183594 454.988281 694.765625 453.976562 694.269531 452.996094 C 693.773438 452.011719 693.203125 451.078125 692.558594 450.183594 C 691.914062 449.292969 691.207031 448.457031 690.433594 447.675781 C 689.65625 446.894531 688.824219 446.179688 687.9375 445.53125 C 687.050781 444.878906 686.117188 444.300781 685.140625 443.796875 C 684.160156 443.292969 683.148438 442.867188 682.105469 442.523438 L 592.875 412.761719 C 587.839844 411.085938 582.707031 409.800781 577.472656 408.914062 C 572.238281 408.027344 566.96875 407.550781 561.660156 407.476562 C 556.351562 407.40625 551.070312 407.742188 545.8125 408.484375 C 540.558594 409.230469 535.390625 410.371094 530.3125 411.914062 L 504.355469 421.804688 L 504.453125 519.824219 L 525.621094 514.304688 C 546.328125 508.019531 551.289062 513.453125 571.867188 520.148438 L 596.335938 528.113281 C 608.027344 530.699219 619.839844 532.523438 631.769531 533.589844 L 632.179688 533.625 C 633.585938 533.738281 635 533.832031 636.417969 533.914062 C 636.558594 533.921875 636.699219 533.929688 636.839844 533.9375 C 639.636719 534.089844 642.425781 534.171875 645.160156 534.164062 C 645.324219 534.164062 645.488281 534.160156 645.648438 534.160156 C 648.265625 534.140625 650.824219 534.035156 653.277344 533.820312 C 653.476562 533.804688 653.675781 533.785156 653.875 533.769531 C 656.105469 533.566406 658.320312 533.246094 660.515625 532.800781 C 660.757812 532.75 661 532.699219 661.238281 532.644531 C 662.242188 532.421875 663.21875 532.179688 664.144531 531.898438 L 757.730469 503.488281 L 781.753906 496.195312 C 782.027344 496.113281 782.285156 496.003906 782.554688 495.910156 L 801.292969 490.21875 C 801.953125 490.019531 802.601562 489.789062 803.238281 489.523438 C 803.875 489.257812 804.496094 488.964844 805.105469 488.640625 C 805.710938 488.316406 806.304688 487.960938 806.875 487.578125 C 807.449219 487.195312 808 486.785156 808.535156 486.347656 C 809.066406 485.914062 809.578125 485.449219 810.0625 484.964844 C 810.550781 484.476562 811.011719 483.964844 811.449219 483.433594 C 811.886719 482.902344 812.296875 482.347656 812.679688 481.777344 C 813.0625 481.203125 813.417969 480.613281 813.742188 480.007812 C 814.066406 479.398438 814.359375 478.777344 814.621094 478.140625 C 814.886719 477.503906 815.117188 476.859375 815.316406 476.199219 C 815.515625 475.539062 815.683594 474.871094 815.816406 474.199219 C 815.953125 473.523438 816.054688 472.84375 816.121094 472.15625 C 816.1875 471.472656 816.222656 470.785156 816.21875 470.097656 C 816.21875 469.410156 816.1875 468.722656 816.117188 468.035156 C 816.050781 467.351562 815.949219 466.671875 815.8125 465.996094 C 815.679688 465.320312 815.511719 464.652344 815.3125 463.996094 Z M 815.3125 463.996094 " fill-opacity="1" fill-rule="nonzero"/><g clip-path="url(#4e5d9a56bc)"><path fill="#616363" d="M 775.816406 476.007812 C 775.574219 475.21875 775.292969 474.4375 774.976562 473.675781 C 774.660156 472.910156 774.304688 472.164062 773.914062 471.433594 C 773.523438 470.703125 773.097656 469.992188 772.636719 469.304688 C 772.175781 468.617188 771.679688 467.953125 771.15625 467.3125 C 770.628906 466.675781 770.074219 466.0625 769.488281 465.476562 C 768.898438 464.890625 768.285156 464.335938 767.644531 463.8125 C 767.003906 463.289062 766.339844 462.796875 765.648438 462.335938 C 764.960938 461.875 764.25 461.453125 763.519531 461.0625 C 762.789062 460.671875 762.039062 460.320312 761.273438 460.003906 C 760.507812 459.6875 759.726562 459.410156 758.933594 459.167969 C 758.140625 458.929688 757.335938 458.730469 756.523438 458.566406 C 755.710938 458.40625 754.894531 458.285156 754.066406 458.207031 C 753.242188 458.125 752.417969 458.085938 751.585938 458.085938 C 750.757812 458.085938 749.929688 458.125 749.105469 458.207031 C 748.28125 458.289062 747.464844 458.414062 746.648438 458.574219 C 745.835938 458.734375 745.035156 458.9375 744.242188 459.179688 L 698.433594 473.085938 C 698.804688 472.28125 699.132812 471.457031 699.417969 470.617188 C 699.703125 469.777344 699.941406 468.925781 700.136719 468.0625 C 700.332031 467.199219 700.480469 466.324219 700.585938 465.445312 C 700.6875 464.566406 700.746094 463.679688 700.753906 462.796875 C 700.765625 461.910156 700.730469 461.023438 700.644531 460.140625 C 700.5625 459.257812 700.433594 458.382812 700.257812 457.515625 C 700.085938 456.644531 699.863281 455.789062 699.597656 454.941406 C 699.335938 454.097656 699.023438 453.269531 698.671875 452.453125 C 698.320312 451.640625 697.925781 450.847656 697.488281 450.074219 C 697.054688 449.304688 696.578125 448.558594 696.0625 447.835938 C 695.550781 447.113281 695 446.417969 694.410156 445.753906 C 693.824219 445.089844 693.203125 444.460938 692.546875 443.859375 C 691.894531 443.261719 691.210938 442.699219 690.496094 442.171875 C 689.785156 441.644531 689.046875 441.15625 688.28125 440.703125 C 687.515625 440.253906 686.730469 439.847656 685.921875 439.480469 C 685.113281 439.113281 684.289062 438.789062 683.449219 438.507812 L 594.21875 408.75 C 588.980469 406.992188 583.632812 405.648438 578.183594 404.71875 C 572.734375 403.792969 567.246094 403.292969 561.71875 403.214844 C 556.191406 403.140625 550.691406 403.496094 545.21875 404.273438 C 539.746094 405.054688 534.367188 406.25 529.078125 407.867188 L 500.113281 418.894531 L 500.222656 525.300781 L 526.851562 518.351562 C 541.949219 513.769531 547.429688 515.792969 559.441406 520.25 C 562.636719 521.433594 566.257812 522.773438 570.554688 524.171875 L 595.023438 532.136719 L 595.433594 532.25 C 605.582031 534.460938 626.304688 538.417969 644.644531 538.417969 C 651.675781 538.585938 658.585938 537.761719 665.378906 535.945312 L 758.964844 507.539062 C 759.757812 507.296875 760.535156 507.015625 761.300781 506.699219 C 762.066406 506.378906 762.8125 506.027344 763.542969 505.636719 C 764.273438 505.242188 764.980469 504.816406 765.667969 504.355469 C 766.359375 503.898438 767.023438 503.402344 767.660156 502.878906 C 768.300781 502.351562 768.914062 501.796875 769.5 501.210938 C 770.085938 500.625 770.640625 500.011719 771.164062 499.371094 C 771.691406 498.734375 772.183594 498.066406 772.640625 497.378906 C 773.101562 496.691406 773.527344 495.984375 773.917969 495.253906 C 774.308594 494.523438 774.660156 493.777344 774.976562 493.011719 C 775.292969 492.246094 775.574219 491.46875 775.8125 490.675781 C 776.054688 489.882812 776.253906 489.082031 776.414062 488.269531 C 776.578125 487.460938 776.699219 486.640625 776.78125 485.820312 C 776.859375 484.996094 776.902344 484.171875 776.902344 483.34375 C 776.902344 482.515625 776.859375 481.691406 776.78125 480.867188 C 776.699219 480.042969 776.578125 479.226562 776.417969 478.414062 C 776.253906 477.601562 776.054688 476.800781 775.816406 476.007812 Z M 756.496094 499.441406 L 662.914062 527.851562 C 644.445312 533.453125 608.40625 526.402344 597.445312 524.023438 L 573.179688 516.128906 C 569.046875 514.78125 565.507812 513.472656 562.386719 512.316406 C 549.8125 507.65625 542.21875 504.84375 524.546875 510.210938 L 508.683594 514.347656 L 508.59375 424.71875 L 531.683594 415.921875 C 536.542969 414.445312 541.484375 413.351562 546.515625 412.640625 C 551.542969 411.929688 556.597656 411.609375 561.675781 411.683594 C 566.753906 411.757812 571.796875 412.21875 576.804688 413.074219 C 581.808594 413.929688 586.71875 415.164062 591.535156 416.777344 L 680.769531 446.535156 C 681.292969 446.710938 681.804688 446.910156 682.308594 447.132812 C 682.8125 447.359375 683.300781 447.605469 683.78125 447.878906 C 684.257812 448.152344 684.722656 448.445312 685.171875 448.765625 C 685.625 449.082031 686.054688 449.421875 686.472656 449.78125 C 686.890625 450.140625 687.285156 450.523438 687.664062 450.921875 C 688.046875 451.320312 688.402344 451.738281 688.742188 452.171875 C 689.078125 452.605469 689.394531 453.058594 689.6875 453.523438 C 689.984375 453.988281 690.253906 454.46875 690.5 454.960938 C 690.746094 455.453125 690.96875 455.953125 691.164062 456.46875 C 691.363281 456.980469 691.535156 457.503906 691.679688 458.035156 C 691.828125 458.566406 691.945312 459.101562 692.039062 459.644531 C 692.132812 460.1875 692.199219 460.734375 692.238281 461.28125 C 692.277344 461.832031 692.289062 462.378906 692.273438 462.929688 C 692.261719 463.480469 692.21875 464.027344 692.148438 464.574219 C 692.082031 465.121094 691.988281 465.660156 691.863281 466.199219 C 691.742188 466.734375 691.59375 467.265625 691.421875 467.789062 C 691.246094 468.308594 691.046875 468.820312 690.824219 469.324219 C 690.601562 469.828125 690.351562 470.316406 690.078125 470.796875 C 689.808594 471.273438 689.511719 471.738281 689.195312 472.1875 C 688.875 472.636719 688.535156 473.070312 688.175781 473.484375 C 687.816406 473.902344 687.433594 474.300781 687.035156 474.679688 C 686.636719 475.058594 686.21875 475.414062 685.78125 475.753906 C 685.347656 476.089844 684.898438 476.40625 684.429688 476.699219 C 683.964844 476.996094 683.484375 477.265625 682.992188 477.511719 C 682.5 477.757812 681.996094 477.980469 681.484375 478.175781 C 680.96875 478.375 680.445312 478.546875 679.914062 478.691406 C 679.382812 478.839844 678.847656 478.957031 678.304688 479.050781 C 677.757812 479.144531 677.214844 479.210938 676.664062 479.25 C 676.113281 479.292969 675.5625 479.304688 675.011719 479.289062 C 674.460938 479.273438 673.914062 479.234375 673.367188 479.167969 C 672.820312 479.097656 672.277344 479.003906 671.738281 478.882812 C 671.203125 478.761719 670.671875 478.613281 670.148438 478.441406 L 611.503906 458.972656 L 608.828125 467 L 667.476562 486.46875 C 670.046875 487.328125 672.683594 487.761719 675.394531 487.765625 C 678.105469 487.769531 680.746094 487.347656 683.316406 486.5 L 683.324219 486.515625 L 746.707031 467.277344 C 747.234375 467.113281 747.765625 466.980469 748.308594 466.871094 C 748.847656 466.765625 749.394531 466.683594 749.941406 466.628906 C 750.492188 466.574219 751.039062 466.546875 751.59375 466.546875 C 752.144531 466.546875 752.695312 466.574219 753.242188 466.625 C 753.792969 466.679688 754.335938 466.761719 754.878906 466.867188 C 755.417969 466.972656 755.953125 467.109375 756.480469 467.265625 C 757.007812 467.425781 757.527344 467.609375 758.035156 467.820312 C 758.546875 468.03125 759.042969 468.265625 759.53125 468.527344 C 760.015625 468.785156 760.488281 469.066406 760.949219 469.371094 C 761.40625 469.679688 761.851562 470.007812 762.277344 470.355469 C 762.703125 470.703125 763.109375 471.074219 763.5 471.460938 C 763.890625 471.851562 764.261719 472.257812 764.613281 472.683594 C 764.960938 473.109375 765.289062 473.550781 765.597656 474.007812 C 765.902344 474.464844 766.1875 474.9375 766.449219 475.421875 C 766.707031 475.910156 766.941406 476.40625 767.15625 476.914062 C 767.367188 477.421875 767.550781 477.941406 767.710938 478.46875 C 767.871094 478.996094 768.007812 479.527344 768.113281 480.066406 C 768.222656 480.609375 768.304688 481.152344 768.359375 481.699219 C 768.414062 482.25 768.441406 482.796875 768.441406 483.347656 C 768.441406 483.898438 768.414062 484.449219 768.359375 484.996094 C 768.304688 485.542969 768.226562 486.089844 768.117188 486.628906 C 768.011719 487.167969 767.878906 487.703125 767.71875 488.230469 C 767.558594 488.757812 767.371094 489.273438 767.160156 489.785156 C 766.949219 490.292969 766.714844 490.789062 766.457031 491.273438 C 766.195312 491.761719 765.914062 492.234375 765.605469 492.691406 C 765.300781 493.148438 764.972656 493.589844 764.625 494.015625 C 764.273438 494.441406 763.902344 494.851562 763.515625 495.238281 C 763.125 495.628906 762.714844 496 762.289062 496.347656 C 761.863281 496.699219 761.421875 497.027344 760.964844 497.332031 C 760.503906 497.636719 760.03125 497.921875 759.546875 498.179688 C 759.058594 498.441406 758.5625 498.675781 758.054688 498.886719 C 757.542969 499.097656 757.023438 499.28125 756.496094 499.441406 Z M 756.496094 499.441406 " fill-opacity="1" fill-rule="nonzero"/></g><g clip-path="url(#bc746360aa)"><path fill="#616363" d="M 799.835938 468.714844 C 799.59375 467.921875 799.316406 467.144531 799 466.378906 C 798.679688 465.617188 798.328125 464.867188 797.9375 464.140625 C 797.542969 463.410156 797.117188 462.699219 796.65625 462.011719 C 796.195312 461.324219 795.703125 460.660156 795.175781 460.019531 C 794.652344 459.382812 794.09375 458.769531 793.507812 458.183594 C 792.921875 457.597656 792.308594 457.042969 791.667969 456.519531 C 791.027344 455.996094 790.359375 455.503906 789.671875 455.042969 C 788.980469 454.582031 788.273438 454.160156 787.539062 453.769531 C 786.808594 453.378906 786.0625 453.027344 785.296875 452.710938 C 784.527344 452.394531 783.75 452.117188 782.957031 451.875 C 782.164062 451.636719 781.359375 451.4375 780.546875 451.273438 C 779.734375 451.113281 778.914062 450.992188 778.089844 450.914062 C 777.265625 450.832031 776.4375 450.792969 775.609375 450.792969 C 774.78125 450.792969 773.953125 450.835938 773.128906 450.917969 C 772.304688 451 771.484375 451.121094 770.671875 451.28125 C 769.859375 451.445312 769.054688 451.644531 768.261719 451.886719 L 744.242188 459.179688 L 746.707031 467.273438 L 770.730469 459.980469 C 771.257812 459.820312 771.789062 459.6875 772.332031 459.582031 C 772.871094 459.472656 773.417969 459.390625 773.964844 459.335938 C 774.515625 459.28125 775.0625 459.257812 775.613281 459.253906 C 776.167969 459.253906 776.714844 459.28125 777.265625 459.335938 C 777.8125 459.390625 778.359375 459.46875 778.898438 459.578125 C 779.441406 459.683594 779.972656 459.816406 780.5 459.976562 C 781.03125 460.136719 781.546875 460.320312 782.058594 460.53125 C 782.566406 460.742188 783.066406 460.976562 783.550781 461.234375 C 784.039062 461.496094 784.511719 461.777344 784.96875 462.082031 C 785.425781 462.390625 785.871094 462.714844 786.296875 463.066406 C 786.722656 463.414062 787.128906 463.785156 787.519531 464.171875 C 787.910156 464.5625 788.28125 464.96875 788.628906 465.394531 C 788.980469 465.820312 789.308594 466.261719 789.613281 466.71875 C 789.921875 467.175781 790.203125 467.648438 790.464844 468.132812 C 790.726562 468.617188 790.960938 469.117188 791.171875 469.625 C 791.382812 470.132812 791.570312 470.652344 791.730469 471.175781 C 791.890625 471.703125 792.023438 472.238281 792.132812 472.777344 C 792.238281 473.316406 792.320312 473.859375 792.375 474.410156 C 792.429688 474.957031 792.457031 475.507812 792.457031 476.054688 C 792.457031 476.605469 792.429688 477.15625 792.375 477.703125 C 792.324219 478.253906 792.242188 478.796875 792.136719 479.335938 C 792.027344 479.875 791.894531 480.410156 791.734375 480.9375 C 791.574219 481.464844 791.390625 481.980469 791.179688 482.488281 C 790.96875 483 790.734375 483.496094 790.472656 483.980469 C 790.214844 484.46875 789.929688 484.9375 789.625 485.398438 C 789.320312 485.855469 788.992188 486.296875 788.640625 486.722656 C 788.292969 487.148438 787.921875 487.554688 787.53125 487.945312 C 787.144531 488.335938 786.734375 488.703125 786.308594 489.054688 C 785.882812 489.402344 785.441406 489.730469 784.984375 490.039062 C 784.523438 490.34375 784.054688 490.625 783.566406 490.886719 C 783.082031 491.144531 782.582031 491.382812 782.074219 491.59375 C 781.566406 491.804688 781.046875 491.988281 780.519531 492.148438 L 662.914062 527.851562 C 641.925781 534.21875 597.738281 524.09375 597.296875 523.992188 L 595.375 532.234375 C 596.796875 532.5625 622.226562 538.398438 644.660156 538.398438 C 651.683594 538.566406 658.589844 537.75 665.378906 535.945312 L 782.984375 500.246094 C 783.777344 500.003906 784.554688 499.722656 785.320312 499.40625 C 786.085938 499.085938 786.832031 498.734375 787.5625 498.34375 C 788.292969 497.949219 789.003906 497.523438 789.691406 497.0625 C 790.378906 496.605469 791.042969 496.109375 791.683594 495.585938 C 792.324219 495.058594 792.9375 494.503906 793.523438 493.917969 C 794.105469 493.332031 794.660156 492.71875 795.1875 492.078125 C 795.710938 491.441406 796.203125 490.773438 796.664062 490.085938 C 797.125 489.398438 797.550781 488.691406 797.9375 487.960938 C 798.328125 487.230469 798.683594 486.484375 799 485.71875 C 799.316406 484.953125 799.59375 484.175781 799.835938 483.382812 C 800.074219 482.589844 800.277344 481.789062 800.4375 480.976562 C 800.597656 480.167969 800.71875 479.347656 800.800781 478.527344 C 800.882812 477.703125 800.921875 476.875 800.921875 476.050781 C 800.921875 475.222656 800.882812 474.398438 800.800781 473.574219 C 800.722656 472.75 800.601562 471.933594 800.4375 471.121094 C 800.277344 470.308594 800.078125 469.507812 799.835938 468.714844 Z M 799.835938 468.714844 " fill-opacity="1" fill-rule="nonzero"/></g><path fill="#616363" d="M 819.363281 462.761719 C 819.121094 461.972656 818.84375 461.195312 818.523438 460.433594 C 818.207031 459.667969 817.851562 458.921875 817.460938 458.195312 C 817.070312 457.464844 816.644531 456.757812 816.183594 456.070312 C 815.722656 455.386719 815.226562 454.722656 814.703125 454.085938 C 814.175781 453.445312 813.621094 452.835938 813.035156 452.25 C 812.449219 451.667969 811.835938 451.113281 811.195312 450.589844 C 810.554688 450.066406 809.890625 449.574219 809.199219 449.117188 C 808.511719 448.65625 807.800781 448.234375 807.070312 447.84375 C 806.339844 447.453125 805.59375 447.101562 804.828125 446.785156 C 804.0625 446.46875 803.285156 446.191406 802.492188 445.953125 C 801.699219 445.710938 800.898438 445.511719 800.085938 445.351562 C 799.273438 445.191406 798.457031 445.070312 797.632812 444.988281 C 796.808594 444.90625 795.984375 444.867188 795.15625 444.867188 C 794.328125 444.867188 793.503906 444.90625 792.679688 444.988281 C 791.855469 445.070312 791.035156 445.191406 790.222656 445.351562 C 789.414062 445.511719 788.609375 445.710938 787.816406 445.953125 L 708.023438 470.175781 L 710.488281 478.269531 L 790.285156 454.046875 C 790.8125 453.886719 791.34375 453.753906 791.882812 453.644531 C 792.425781 453.539062 792.96875 453.457031 793.515625 453.402344 C 794.0625 453.347656 794.613281 453.320312 795.164062 453.320312 C 795.714844 453.320312 796.265625 453.347656 796.8125 453.402344 C 797.359375 453.453125 797.902344 453.535156 798.445312 453.640625 C 798.984375 453.75 799.515625 453.882812 800.042969 454.039062 C 800.570312 454.199219 801.089844 454.386719 801.597656 454.59375 C 802.105469 454.804688 802.605469 455.039062 803.089844 455.296875 C 803.574219 455.558594 804.046875 455.839844 804.503906 456.144531 C 804.964844 456.449219 805.40625 456.777344 805.832031 457.125 C 806.257812 457.472656 806.664062 457.84375 807.054688 458.230469 C 807.441406 458.621094 807.8125 459.027344 808.164062 459.453125 C 808.511719 459.875 808.839844 460.316406 809.144531 460.773438 C 809.453125 461.230469 809.734375 461.703125 809.996094 462.1875 C 810.253906 462.671875 810.488281 463.167969 810.699219 463.675781 C 810.910156 464.183594 811.097656 464.699219 811.257812 465.226562 C 811.417969 465.753906 811.550781 466.285156 811.660156 466.824219 C 811.765625 467.363281 811.847656 467.90625 811.902344 468.453125 C 811.957031 469 811.984375 469.550781 811.984375 470.101562 C 811.984375 470.648438 811.957031 471.199219 811.902344 471.746094 C 811.851562 472.292969 811.769531 472.835938 811.664062 473.375 C 811.554688 473.914062 811.421875 474.449219 811.261719 474.972656 C 811.101562 475.5 810.917969 476.015625 810.707031 476.527344 C 810.496094 477.035156 810.261719 477.53125 810.003906 478.015625 C 809.742188 478.5 809.460938 478.972656 809.15625 479.429688 C 808.851562 479.886719 808.523438 480.328125 808.175781 480.753906 C 807.824219 481.179688 807.457031 481.585938 807.066406 481.972656 C 806.675781 482.363281 806.269531 482.730469 805.84375 483.082031 C 805.417969 483.429688 804.976562 483.757812 804.519531 484.0625 C 804.0625 484.367188 803.589844 484.652344 803.105469 484.910156 C 802.621094 485.171875 802.125 485.40625 801.613281 485.617188 C 801.105469 485.828125 800.589844 486.011719 800.0625 486.171875 L 763.027344 497.414062 L 765.492188 505.511719 L 802.527344 494.265625 C 803.320312 494.027344 804.097656 493.746094 804.863281 493.429688 C 805.625 493.109375 806.375 492.757812 807.101562 492.367188 C 807.832031 491.976562 808.539062 491.550781 809.226562 491.089844 C 809.917969 490.628906 810.578125 490.136719 811.21875 489.609375 C 811.859375 489.085938 812.46875 488.53125 813.054688 487.945312 C 813.640625 487.359375 814.195312 486.746094 814.71875 486.109375 C 815.242188 485.46875 815.734375 484.804688 816.195312 484.117188 C 816.65625 483.429688 817.078125 482.722656 817.46875 481.992188 C 817.859375 481.261719 818.210938 480.515625 818.527344 479.75 C 818.84375 478.988281 819.121094 478.210938 819.363281 477.417969 C 819.601562 476.628906 819.804688 475.828125 819.964844 475.015625 C 820.125 474.203125 820.246094 473.386719 820.328125 472.566406 C 820.410156 471.742188 820.449219 470.917969 820.449219 470.089844 C 820.449219 469.265625 820.410156 468.441406 820.328125 467.617188 C 820.25 466.792969 820.128906 465.976562 819.964844 465.167969 C 819.804688 464.355469 819.605469 463.554688 819.363281 462.761719 Z M 819.363281 462.761719 " fill-opacity="1" fill-rule="nonzero"/><path fill="#84d1da" d="M 730.785156 330.054688 C 728.597656 330.054688 726.421875 330.210938 724.257812 330.523438 C 722.09375 330.835938 719.960938 331.300781 717.863281 331.917969 C 715.765625 332.535156 713.722656 333.300781 711.738281 334.207031 C 709.75 335.117188 707.835938 336.164062 705.996094 337.347656 C 704.160156 338.53125 702.414062 339.839844 700.765625 341.273438 C 699.117188 342.707031 697.578125 344.25 696.148438 345.902344 C 694.71875 347.558594 693.417969 349.304688 692.238281 351.144531 C 691.0625 352.984375 690.019531 354.898438 689.117188 356.886719 L 617.339844 356.886719 L 589.40625 373.726562 L 589.40625 385.929688 L 615.335938 401.96875 L 629.210938 389.140625 L 638.90625 389.140625 L 651.996094 401.96875 L 661.671875 392.625 L 668.152344 398.511719 L 691.074219 398.511719 C 691.738281 399.667969 692.449219 400.792969 693.210938 401.886719 C 693.972656 402.976562 694.78125 404.035156 695.636719 405.058594 C 696.492188 406.082031 697.386719 407.066406 698.328125 408.011719 C 699.269531 408.957031 700.246094 409.855469 701.265625 410.714844 C 702.285156 411.574219 703.339844 412.386719 704.429688 413.15625 C 705.523438 413.921875 706.644531 414.640625 707.796875 415.308594 C 708.949219 415.980469 710.128906 416.597656 711.335938 417.164062 C 712.542969 417.730469 713.773438 418.242188 715.027344 418.699219 C 716.277344 419.160156 717.546875 419.5625 718.835938 419.910156 C 720.125 420.257812 721.421875 420.550781 722.738281 420.785156 C 724.050781 421.019531 725.371094 421.195312 726.699219 421.316406 C 728.027344 421.433594 729.359375 421.496094 730.691406 421.5 C 732.023438 421.5 733.355469 421.445312 734.683594 421.332031 C 736.015625 421.21875 737.335938 421.050781 738.648438 420.820312 C 739.964844 420.59375 741.265625 420.308594 742.554688 419.964844 C 743.84375 419.625 745.113281 419.226562 746.367188 418.773438 C 747.625 418.320312 748.855469 417.8125 750.066406 417.253906 C 751.273438 416.691406 752.457031 416.078125 753.613281 415.414062 C 754.769531 414.753906 755.894531 414.039062 756.988281 413.277344 C 758.082031 412.515625 759.140625 411.707031 760.164062 410.851562 C 761.1875 410 762.171875 409.101562 763.117188 408.160156 C 764.0625 407.21875 764.964844 406.242188 765.824219 405.222656 C 766.679688 404.203125 767.496094 403.148438 768.261719 402.058594 C 769.027344 400.96875 769.746094 399.847656 770.414062 398.695312 C 771.082031 397.542969 771.699219 396.363281 772.265625 395.15625 C 772.828125 393.949219 773.339844 392.722656 773.800781 391.46875 C 774.257812 390.21875 774.660156 388.949219 775.007812 387.664062 C 775.351562 386.378906 775.644531 385.078125 775.875 383.769531 C 776.109375 382.457031 776.285156 381.136719 776.402344 379.8125 C 776.519531 378.484375 776.578125 377.15625 776.582031 375.824219 C 776.582031 374.492188 776.523438 373.160156 776.410156 371.835938 C 776.296875 370.507812 776.121094 369.1875 775.890625 367.875 C 775.660156 366.5625 775.375 365.265625 775.03125 363.976562 C 774.6875 362.691406 774.285156 361.421875 773.832031 360.167969 C 773.375 358.917969 772.867188 357.6875 772.304688 356.480469 C 771.742188 355.273438 771.125 354.09375 770.460938 352.9375 C 769.792969 351.785156 769.078125 350.660156 768.3125 349.570312 C 767.550781 348.480469 766.738281 347.421875 765.882812 346.402344 C 765.027344 345.382812 764.125 344.398438 763.183594 343.457031 C 762.238281 342.515625 761.257812 341.617188 760.238281 340.757812 C 759.214844 339.902344 758.160156 339.09375 757.066406 338.328125 C 755.972656 337.566406 754.851562 336.847656 753.695312 336.183594 C 752.539062 335.515625 751.359375 334.902344 750.148438 334.339844 C 748.941406 333.777344 747.710938 333.265625 746.457031 332.8125 C 745.203125 332.355469 743.933594 331.957031 742.644531 331.609375 C 741.355469 331.265625 740.054688 330.980469 738.742188 330.746094 C 737.425781 330.515625 736.105469 330.34375 734.777344 330.226562 C 733.449219 330.113281 732.117188 330.054688 730.785156 330.054688 Z M 730.785156 330.054688 " fill-opacity="1" fill-rule="nonzero"/><path fill="#ffffff" d="M 735.46875 392.851562 C 734.847656 392.84375 734.230469 392.867188 733.609375 392.917969 C 732.992188 392.964844 732.375 393.046875 731.765625 393.152344 C 731.15625 393.261719 730.550781 393.394531 729.949219 393.558594 C 729.351562 393.722656 728.761719 393.914062 728.183594 394.132812 C 727.601562 394.351562 727.03125 394.597656 726.472656 394.871094 C 725.917969 395.144531 725.375 395.441406 724.84375 395.765625 C 724.3125 396.085938 723.800781 396.433594 723.300781 396.804688 C 722.804688 397.175781 722.328125 397.570312 721.867188 397.984375 C 721.40625 398.402344 720.964844 398.835938 720.546875 399.292969 C 720.125 399.75 719.730469 400.226562 719.355469 400.71875 C 718.980469 401.214844 718.628906 401.722656 718.300781 402.25 C 717.972656 402.777344 717.671875 403.316406 717.394531 403.875 C 717.117188 404.429688 716.867188 404.996094 716.644531 405.574219 C 716.421875 406.152344 716.226562 406.738281 716.054688 407.335938 C 715.886719 407.933594 715.746094 408.535156 715.636719 409.144531 C 715.523438 409.753906 715.441406 410.367188 715.386719 410.984375 C 715.195312 413.851562 715.617188 416.621094 716.65625 419.300781 C 718.023438 419.742188 719.402344 420.117188 720.804688 420.425781 C 722.203125 420.738281 723.613281 420.984375 725.039062 421.164062 C 726.460938 421.339844 727.890625 421.453125 729.324219 421.5 C 730.757812 421.542969 732.1875 421.523438 733.621094 421.433594 C 735.050781 421.34375 736.476562 421.1875 737.890625 420.964844 C 739.308594 420.742188 740.710938 420.453125 742.101562 420.101562 C 743.492188 419.746094 744.859375 419.328125 746.210938 418.84375 C 747.5625 418.363281 748.886719 417.816406 750.183594 417.210938 C 751.484375 416.605469 752.753906 415.9375 753.988281 415.210938 C 755.226562 414.488281 756.425781 413.707031 757.589844 412.867188 C 758.75 412.03125 759.871094 411.140625 760.953125 410.195312 C 762.03125 409.253906 763.0625 408.261719 764.050781 407.222656 C 765.035156 406.179688 765.972656 405.097656 766.855469 403.96875 C 767.738281 402.84375 768.570312 401.675781 769.34375 400.472656 C 770.117188 399.265625 770.835938 398.027344 771.492188 396.753906 C 772.152344 395.480469 772.75 394.183594 773.285156 392.851562 Z M 735.46875 392.851562 " fill-opacity="1" fill-rule="nonzero"/><path fill="#616363" d="M 730.785156 325.820312 C 728.511719 325.828125 726.25 325.984375 724 326.296875 C 721.746094 326.609375 719.527344 327.074219 717.339844 327.6875 C 715.152344 328.300781 713.015625 329.058594 710.929688 329.960938 C 708.847656 330.863281 706.832031 331.90625 704.890625 333.082031 C 702.945312 334.257812 701.089844 335.5625 699.324219 336.988281 C 697.558594 338.417969 695.898438 339.960938 694.34375 341.613281 C 692.785156 343.265625 691.347656 345.019531 690.03125 346.867188 C 688.714844 348.714844 687.527344 350.644531 686.472656 352.65625 L 616.160156 352.65625 L 585.167969 371.339844 L 585.167969 388.289062 L 615.847656 407.261719 L 630.871094 393.371094 L 637.171875 393.371094 L 651.972656 407.875 L 661.761719 398.425781 L 666.515625 402.742188 L 688.695312 402.742188 C 689.277344 403.648438 689.890625 404.539062 690.53125 405.40625 C 691.167969 406.273438 691.835938 407.121094 692.53125 407.945312 C 693.226562 408.769531 693.949219 409.570312 694.695312 410.347656 C 695.445312 411.128906 696.214844 411.878906 697.011719 412.609375 C 697.808594 413.335938 698.625 414.039062 699.46875 414.714844 C 700.308594 415.390625 701.171875 416.035156 702.054688 416.65625 C 702.9375 417.277344 703.839844 417.867188 704.761719 418.425781 C 705.683594 418.988281 706.625 419.519531 707.582031 420.019531 C 708.535156 420.519531 709.507812 420.988281 710.496094 421.425781 C 711.480469 421.863281 712.480469 422.269531 713.492188 422.640625 C 714.507812 423.015625 715.53125 423.355469 716.566406 423.660156 C 717.601562 423.96875 718.644531 424.242188 719.695312 424.480469 C 720.75 424.71875 721.808594 424.925781 722.875 425.097656 C 723.941406 425.265625 725.011719 425.402344 726.085938 425.503906 C 727.160156 425.605469 728.238281 425.671875 729.316406 425.703125 C 730.394531 425.738281 731.472656 425.734375 732.554688 425.695312 C 733.632812 425.65625 734.707031 425.585938 735.78125 425.476562 C 736.855469 425.371094 737.925781 425.226562 738.992188 425.050781 C 740.054688 424.875 741.113281 424.664062 742.164062 424.417969 C 743.21875 424.175781 744.257812 423.894531 745.292969 423.582031 C 746.324219 423.269531 747.347656 422.925781 748.359375 422.546875 C 749.371094 422.167969 750.367188 421.757812 751.351562 421.316406 C 752.335938 420.871094 753.304688 420.398438 754.257812 419.890625 C 755.210938 419.386719 756.148438 418.851562 757.066406 418.285156 C 757.984375 417.71875 758.882812 417.121094 759.765625 416.5 C 760.644531 415.875 761.503906 415.222656 762.339844 414.542969 C 763.179688 413.863281 763.992188 413.15625 764.785156 412.421875 C 765.578125 411.691406 766.34375 410.933594 767.089844 410.152344 C 767.832031 409.371094 768.546875 408.5625 769.238281 407.734375 C 769.929688 406.90625 770.59375 406.058594 771.226562 405.183594 C 771.863281 404.3125 772.46875 403.421875 773.046875 402.511719 C 773.625 401.601562 774.171875 400.671875 774.691406 399.726562 C 775.210938 398.78125 775.695312 397.820312 776.152344 396.84375 C 776.605469 395.863281 777.03125 394.875 777.421875 393.867188 C 777.8125 392.863281 778.167969 391.847656 778.496094 390.820312 C 778.820312 389.789062 779.109375 388.753906 779.371094 387.707031 C 779.628906 386.660156 779.851562 385.605469 780.039062 384.542969 C 780.230469 383.484375 780.382812 382.417969 780.503906 381.34375 C 780.625 380.273438 780.710938 379.199219 780.761719 378.121094 C 780.8125 377.046875 780.828125 375.96875 780.808594 374.890625 C 780.789062 373.8125 780.738281 372.738281 780.648438 371.660156 C 780.558594 370.585938 780.433594 369.515625 780.277344 368.449219 C 780.117188 367.382812 779.925781 366.324219 779.699219 365.269531 C 779.472656 364.214844 779.210938 363.171875 778.917969 362.132812 C 778.621094 361.097656 778.292969 360.070312 777.933594 359.054688 C 777.570312 358.039062 777.175781 357.035156 776.75 356.042969 C 776.324219 355.054688 775.867188 354.078125 775.375 353.117188 C 774.886719 352.15625 774.367188 351.210938 773.816406 350.285156 C 773.265625 349.359375 772.683594 348.449219 772.074219 347.558594 C 771.464844 346.671875 770.828125 345.800781 770.160156 344.953125 C 769.496094 344.105469 768.800781 343.277344 768.082031 342.476562 C 767.363281 341.671875 766.617188 340.890625 765.847656 340.136719 C 765.078125 339.382812 764.285156 338.652344 763.464844 337.945312 C 762.648438 337.242188 761.808594 336.566406 760.949219 335.917969 C 760.085938 335.265625 759.203125 334.644531 758.304688 334.050781 C 757.402344 333.460938 756.480469 332.894531 755.542969 332.363281 C 754.605469 331.828125 753.652344 331.328125 752.679688 330.855469 C 751.710938 330.382812 750.722656 329.945312 749.726562 329.535156 C 748.726562 329.128906 747.714844 328.753906 746.691406 328.410156 C 745.667969 328.066406 744.632812 327.757812 743.589844 327.484375 C 742.546875 327.207031 741.496094 326.964844 740.433594 326.757812 C 739.375 326.550781 738.3125 326.375 737.242188 326.238281 C 736.171875 326.097656 735.097656 325.996094 734.019531 325.925781 C 732.941406 325.855469 731.863281 325.820312 730.785156 325.820312 Z M 730.785156 417.292969 C 728.964844 417.289062 727.152344 417.167969 725.347656 416.925781 C 723.542969 416.683594 721.761719 416.324219 720.003906 415.847656 C 718.246094 415.375 716.527344 414.785156 714.847656 414.085938 C 713.167969 413.386719 711.539062 412.582031 709.964844 411.667969 C 708.390625 410.753906 706.882812 409.742188 705.441406 408.632812 C 704 407.523438 702.636719 406.324219 701.351562 405.035156 C 700.066406 403.746094 698.875 402.378906 697.769531 400.9375 C 696.664062 399.492188 695.65625 397.980469 694.75 396.402344 L 693.527344 394.28125 L 669.792969 394.28125 L 661.585938 386.828125 L 652.019531 396.0625 L 640.636719 384.910156 L 627.554688 384.910156 L 614.824219 396.675781 L 593.640625 383.574219 L 593.640625 376.113281 L 618.519531 361.117188 L 691.84375 361.117188 L 692.972656 358.640625 C 693.484375 357.515625 694.046875 356.414062 694.65625 355.339844 C 695.265625 354.265625 695.925781 353.21875 696.628906 352.203125 C 697.332031 351.1875 698.078125 350.203125 698.871094 349.253906 C 699.664062 348.304688 700.496094 347.390625 701.371094 346.515625 C 702.242188 345.640625 703.152344 344.804688 704.101562 344.011719 C 705.050781 343.21875 706.03125 342.46875 707.046875 341.761719 C 708.0625 341.054688 709.109375 340.394531 710.183594 339.78125 C 711.257812 339.167969 712.355469 338.605469 713.480469 338.089844 C 714.605469 337.574219 715.75 337.109375 716.917969 336.699219 C 718.082031 336.285156 719.265625 335.925781 720.464844 335.617188 C 721.664062 335.308594 722.875 335.054688 724.09375 334.855469 C 725.316406 334.65625 726.542969 334.511719 727.777344 334.421875 C 729.011719 334.332031 730.246094 334.296875 731.484375 334.320312 C 732.722656 334.339844 733.957031 334.414062 735.1875 334.546875 C 736.417969 334.675781 737.640625 334.863281 738.851562 335.101562 C 740.066406 335.339844 741.269531 335.632812 742.457031 335.980469 C 743.644531 336.328125 744.8125 336.726562 745.964844 337.175781 C 747.117188 337.628906 748.246094 338.128906 749.355469 338.683594 C 750.460938 339.234375 751.542969 339.835938 752.59375 340.484375 C 753.648438 341.132812 754.671875 341.824219 755.664062 342.566406 C 756.652344 343.304688 757.609375 344.085938 758.53125 344.910156 C 759.453125 345.738281 760.335938 346.601562 761.179688 347.503906 C 762.023438 348.410156 762.824219 349.347656 763.585938 350.324219 C 764.34375 351.296875 765.058594 352.304688 765.730469 353.34375 C 766.398438 354.382812 767.023438 355.449219 767.597656 356.546875 C 768.171875 357.640625 768.695312 358.757812 769.167969 359.898438 C 769.644531 361.042969 770.066406 362.203125 770.4375 363.378906 C 770.808594 364.558594 771.125 365.753906 771.386719 366.960938 C 771.652344 368.167969 771.863281 369.382812 772.015625 370.609375 C 772.171875 371.835938 772.269531 373.066406 772.316406 374.300781 C 772.359375 375.535156 772.351562 376.773438 772.285156 378.003906 C 772.21875 379.238281 772.097656 380.46875 771.921875 381.691406 C 771.746094 382.914062 771.515625 384.128906 771.234375 385.332031 C 770.949219 386.535156 770.613281 387.722656 770.222656 388.894531 C 769.832031 390.066406 769.390625 391.21875 768.894531 392.351562 C 768.402344 393.484375 767.859375 394.59375 767.265625 395.679688 C 766.671875 396.765625 766.03125 397.820312 765.34375 398.847656 C 764.660156 399.875 763.925781 400.871094 763.148438 401.832031 C 762.375 402.796875 761.554688 403.722656 760.695312 404.609375 C 759.835938 405.5 758.941406 406.351562 758.003906 407.160156 C 757.070312 407.96875 756.101562 408.734375 755.097656 409.457031 C 754.09375 410.179688 753.058594 410.855469 751.996094 411.488281 C 750.929688 412.117188 749.839844 412.699219 748.722656 413.234375 C 747.609375 413.765625 746.46875 414.25 745.308594 414.679688 C 744.152344 415.113281 742.972656 415.492188 741.78125 415.816406 C 740.585938 416.144531 739.382812 416.417969 738.164062 416.636719 C 736.945312 416.855469 735.722656 417.019531 734.488281 417.128906 C 733.257812 417.238281 732.019531 417.292969 730.785156 417.292969 Z M 730.785156 417.292969 " fill-opacity="1" fill-rule="nonzero"/><path fill="#ffffff" d="M 907.304688 302.957031 C 898.25 302.972656 889.328125 301.898438 880.539062 299.738281 C 871.746094 297.574219 863.347656 294.390625 855.335938 290.179688 C 841.988281 283.132812 823.601562 275.8125 804.9375 275.8125 C 799.972656 275.902344 795.085938 276.546875 790.269531 277.75 C 785.457031 278.953125 780.839844 280.6875 776.421875 282.945312 C 762.417969 289.777344 749.8125 300.503906 739.175781 310.765625 C 729.539062 320.050781 724.050781 325.449219 717.652344 331.984375 C 719.667969 331.382812 721.71875 330.917969 723.796875 330.597656 C 725.878906 330.277344 727.96875 330.097656 730.074219 330.066406 C 732.179688 330.03125 734.273438 330.144531 736.363281 330.398438 C 738.453125 330.65625 740.515625 331.054688 742.546875 331.59375 C 744.582031 332.132812 746.570312 332.8125 748.511719 333.625 C 750.449219 334.4375 752.328125 335.382812 754.136719 336.453125 C 755.945312 337.523438 757.675781 338.714844 759.320312 340.027344 C 760.964844 341.335938 762.515625 342.753906 763.964844 344.277344 C 765.46875 342.839844 766.824219 341.570312 767.714844 340.765625 C 779.535156 330.019531 790.890625 321.320312 807.394531 320.222656 C 809.101562 320.117188 810.804688 320.144531 812.511719 320.292969 C 814.214844 320.445312 815.894531 320.722656 817.558594 321.125 C 819.21875 321.527344 820.84375 322.050781 822.425781 322.695312 C 824.011719 323.339844 825.539062 324.097656 827.007812 324.96875 C 828.480469 325.84375 829.875 326.816406 831.199219 327.898438 C 832.527344 328.980469 833.761719 330.152344 834.910156 331.417969 C 836.0625 332.683594 837.109375 334.023438 838.058594 335.445312 C 839.007812 336.867188 839.84375 338.351562 840.570312 339.898438 C 846.203125 352.402344 842.667969 367.949219 833.769531 378.042969 C 824.828125 388.15625 811.164062 392.851562 797.882812 392.851562 L 735.46875 392.851562 C 734.847656 392.84375 734.230469 392.867188 733.609375 392.917969 C 732.992188 392.964844 732.375 393.046875 731.765625 393.152344 C 731.15625 393.261719 730.550781 393.394531 729.949219 393.558594 C 729.351562 393.722656 728.761719 393.914062 728.183594 394.132812 C 727.601562 394.351562 727.03125 394.597656 726.472656 394.871094 C 725.917969 395.144531 725.375 395.441406 724.84375 395.765625 C 724.3125 396.085938 723.800781 396.433594 723.300781 396.804688 C 722.804688 397.175781 722.328125 397.570312 721.867188 397.984375 C 721.40625 398.402344 720.964844 398.835938 720.546875 399.292969 C 720.125 399.75 719.730469 400.226562 719.355469 400.71875 C 718.980469 401.214844 718.628906 401.722656 718.300781 402.25 C 717.972656 402.777344 717.671875 403.316406 717.394531 403.875 C 717.117188 404.429688 716.867188 404.996094 716.644531 405.574219 C 716.421875 406.152344 716.226562 406.738281 716.054688 407.335938 C 715.886719 407.933594 715.746094 408.535156 715.636719 409.144531 C 715.523438 409.753906 715.441406 410.367188 715.386719 410.984375 C 715.339844 411.648438 715.332031 412.308594 715.355469 412.972656 C 715.378906 413.636719 715.4375 414.296875 715.527344 414.953125 C 715.621094 415.609375 715.742188 416.261719 715.902344 416.90625 C 716.0625 417.550781 716.25 418.1875 716.476562 418.8125 C 716.699219 419.4375 716.953125 420.046875 717.238281 420.644531 C 717.527344 421.246094 717.84375 421.828125 718.1875 422.394531 C 718.535156 422.960938 718.910156 423.507812 719.3125 424.035156 C 719.714844 424.5625 720.140625 425.070312 720.59375 425.554688 C 721.050781 426.039062 721.527344 426.5 722.027344 426.933594 C 722.53125 427.371094 723.054688 427.777344 723.597656 428.160156 C 724.140625 428.542969 724.703125 428.894531 725.28125 429.21875 C 725.859375 429.542969 726.457031 429.839844 727.066406 430.101562 C 727.675781 430.363281 728.296875 430.597656 728.929688 430.796875 C 729.5625 430.996094 730.207031 431.164062 730.855469 431.296875 C 731.507812 431.429688 732.164062 431.53125 732.824219 431.597656 C 733.484375 431.664062 734.148438 431.699219 734.8125 431.699219 L 836.609375 431.699219 C 840.886719 431.65625 845.144531 431.304688 849.375 430.644531 C 853.601562 429.984375 857.761719 429.019531 861.851562 427.757812 C 865.941406 426.492188 869.917969 424.9375 873.78125 423.097656 C 877.644531 421.253906 881.355469 419.140625 884.910156 416.761719 C 888.601562 414.34375 892.449219 412.203125 896.453125 410.34375 C 900.457031 408.484375 904.574219 406.921875 908.808594 405.664062 C 913.039062 404.402344 917.339844 403.453125 921.707031 402.816406 C 926.078125 402.179688 930.46875 401.863281 934.886719 401.867188 L 935.4375 401.867188 L 935.4375 302.957031 Z M 907.304688 302.957031 " fill-opacity="1" fill-rule="nonzero"/><g clip-path="url(#7f840d8957)"><path fill="#616363" d="M 907.304688 298.726562 C 898.597656 298.734375 890.015625 297.695312 881.5625 295.617188 C 873.105469 293.539062 865.023438 290.480469 857.316406 286.4375 C 844.476562 279.660156 824.96875 271.582031 804.9375 271.582031 C 799.652344 271.671875 794.445312 272.351562 789.316406 273.628906 C 784.1875 274.90625 779.269531 276.742188 774.5625 279.140625 C 758.777344 286.84375 745.128906 299.140625 736.234375 307.71875 C 726.3125 317.28125 720.859375 322.65625 714.625 329.027344 L 703.128906 340.769531 L 718.875 336.035156 C 720.703125 335.488281 722.558594 335.070312 724.449219 334.777344 C 726.335938 334.488281 728.234375 334.324219 730.140625 334.296875 C 732.050781 334.265625 733.953125 334.367188 735.847656 334.597656 C 737.746094 334.832031 739.617188 335.191406 741.460938 335.683594 C 743.304688 336.171875 745.109375 336.785156 746.871094 337.523438 C 748.632812 338.261719 750.332031 339.117188 751.976562 340.089844 C 753.617188 341.0625 755.183594 342.144531 756.679688 343.332031 C 758.171875 344.523438 759.578125 345.808594 760.890625 347.1875 L 763.820312 350.273438 L 766.894531 347.332031 C 768.363281 345.925781 769.6875 344.683594 770.566406 343.894531 C 781.183594 334.238281 792.015625 325.488281 807.671875 324.445312 C 809.167969 324.355469 810.65625 324.375 812.148438 324.507812 C 813.636719 324.644531 815.109375 324.886719 816.5625 325.238281 C 818.015625 325.589844 819.433594 326.046875 820.820312 326.609375 C 822.207031 327.171875 823.542969 327.835938 824.828125 328.597656 C 826.113281 329.359375 827.335938 330.210938 828.496094 331.15625 C 829.65625 332.097656 830.738281 333.121094 831.746094 334.226562 C 832.753906 335.332031 833.671875 336.503906 834.503906 337.746094 C 835.335938 338.988281 836.070312 340.285156 836.707031 341.636719 C 841.390625 352.027344 838.875 365.847656 830.59375 375.242188 C 823.074219 383.746094 811.152344 388.621094 797.882812 388.621094 L 735.46875 388.621094 C 734.714844 388.613281 733.960938 388.636719 733.210938 388.699219 C 732.460938 388.761719 731.714844 388.855469 730.96875 388.988281 C 730.226562 389.121094 729.492188 389.285156 728.765625 389.484375 C 728.039062 389.6875 727.324219 389.921875 726.621094 390.1875 C 725.914062 390.457031 725.222656 390.753906 724.546875 391.085938 C 723.871094 391.417969 723.210938 391.78125 722.566406 392.175781 C 721.925781 392.570312 721.304688 392.992188 720.699219 393.445312 C 720.097656 393.898438 719.515625 394.378906 718.960938 394.882812 C 718.402344 395.390625 717.867188 395.921875 717.359375 396.480469 C 716.851562 397.035156 716.371094 397.613281 715.917969 398.214844 C 715.464844 398.816406 715.042969 399.441406 714.648438 400.082031 C 714.253906 400.722656 713.886719 401.382812 713.554688 402.054688 C 713.222656 402.730469 712.921875 403.421875 712.652344 404.125 C 712.386719 404.828125 712.148438 405.542969 711.949219 406.269531 C 711.75 406.996094 711.582031 407.730469 711.449219 408.46875 C 711.316406 409.210938 711.21875 409.957031 711.15625 410.707031 C 711.105469 411.511719 711.09375 412.320312 711.121094 413.128906 C 711.148438 413.933594 711.21875 414.738281 711.332031 415.539062 C 711.441406 416.339844 711.59375 417.132812 711.789062 417.917969 C 711.980469 418.703125 712.214844 419.472656 712.484375 420.234375 C 712.757812 420.996094 713.066406 421.742188 713.417969 422.46875 C 713.765625 423.199219 714.148438 423.910156 714.570312 424.597656 C 714.992188 425.289062 715.449219 425.953125 715.9375 426.597656 C 716.429688 427.242188 716.949219 427.855469 717.503906 428.445312 C 718.054688 429.035156 718.636719 429.597656 719.25 430.125 C 719.859375 430.65625 720.496094 431.15625 721.15625 431.621094 C 721.816406 432.085938 722.5 432.515625 723.207031 432.910156 C 723.914062 433.304688 724.636719 433.664062 725.378906 433.984375 C 726.121094 434.304688 726.878906 434.585938 727.652344 434.828125 C 728.421875 435.074219 729.203125 435.277344 729.996094 435.441406 C 730.789062 435.601562 731.585938 435.726562 732.394531 435.808594 C 733.199219 435.890625 734.003906 435.929688 734.8125 435.929688 L 836.609375 435.929688 C 841.09375 435.886719 845.554688 435.519531 849.988281 434.832031 C 854.421875 434.140625 858.78125 433.132812 863.066406 431.808594 C 867.351562 430.488281 871.519531 428.859375 875.570312 426.933594 C 879.621094 425.003906 883.507812 422.792969 887.234375 420.296875 C 890.753906 417.988281 894.421875 415.949219 898.242188 414.175781 C 902.058594 412.398438 905.984375 410.910156 910.019531 409.710938 C 914.054688 408.507812 918.152344 407.601562 922.320312 407 C 926.488281 406.394531 930.675781 406.09375 934.886719 406.097656 L 939.671875 406.097656 L 939.671875 298.726562 Z M 931.199219 397.707031 C 926.890625 397.867188 922.613281 398.320312 918.363281 399.0625 C 914.117188 399.804688 909.9375 400.832031 905.832031 402.144531 C 901.722656 403.453125 897.722656 405.039062 893.832031 406.890625 C 889.941406 408.746094 886.191406 410.855469 882.589844 413.222656 C 879.203125 415.492188 875.675781 417.503906 871.996094 419.257812 C 868.320312 421.015625 864.535156 422.496094 860.640625 423.699219 C 856.75 424.90625 852.789062 425.824219 848.761719 426.457031 C 844.734375 427.085938 840.683594 427.421875 836.609375 427.464844 L 734.8125 427.464844 C 734.292969 427.464844 733.773438 427.441406 733.257812 427.390625 C 732.742188 427.335938 732.226562 427.257812 731.71875 427.152344 C 731.207031 427.050781 730.707031 426.917969 730.210938 426.761719 C 729.714844 426.605469 729.226562 426.425781 728.75 426.21875 C 728.273438 426.015625 727.808594 425.785156 727.355469 425.53125 C 726.902344 425.277344 726.460938 425 726.035156 424.703125 C 725.609375 424.402344 725.203125 424.082031 724.808594 423.742188 C 724.417969 423.402344 724.042969 423.042969 723.6875 422.664062 C 723.332031 422.285156 722.996094 421.886719 722.683594 421.472656 C 722.367188 421.0625 722.074219 420.632812 721.804688 420.191406 C 721.535156 419.746094 721.285156 419.289062 721.0625 418.820312 C 720.839844 418.351562 720.640625 417.875 720.464844 417.386719 C 720.289062 416.894531 720.140625 416.398438 720.015625 415.894531 C 719.894531 415.390625 719.796875 414.882812 719.726562 414.367188 C 719.652344 413.851562 719.609375 413.335938 719.589844 412.816406 C 719.570312 412.296875 719.582031 411.78125 719.617188 411.261719 C 719.703125 410.289062 719.882812 409.332031 720.152344 408.390625 C 720.417969 407.453125 720.773438 406.546875 721.210938 405.671875 C 721.652344 404.800781 722.167969 403.972656 722.761719 403.199219 C 723.359375 402.421875 724.019531 401.707031 724.75 401.054688 C 725.476562 400.402344 726.261719 399.824219 727.097656 399.320312 C 727.9375 398.816406 728.8125 398.394531 729.730469 398.054688 C 730.648438 397.714844 731.589844 397.460938 732.554688 397.300781 C 733.519531 397.136719 734.492188 397.0625 735.46875 397.082031 L 797.882812 397.082031 C 813.582031 397.082031 827.820312 391.164062 836.949219 380.839844 C 847.359375 369.03125 850.4375 351.480469 844.433594 338.164062 C 843.617188 336.421875 842.675781 334.75 841.613281 333.152344 C 840.546875 331.550781 839.367188 330.039062 838.074219 328.613281 C 836.78125 327.1875 835.390625 325.867188 833.902344 324.652344 C 832.410156 323.433594 830.839844 322.335938 829.183594 321.351562 C 827.53125 320.371094 825.8125 319.515625 824.027344 318.789062 C 822.246094 318.0625 820.421875 317.472656 818.550781 317.019531 C 816.679688 316.566406 814.785156 316.253906 812.867188 316.082031 C 810.949219 315.910156 809.03125 315.882812 807.109375 316 C 788.738281 317.226562 776.164062 327.359375 764.867188 337.628906 C 764.613281 337.859375 764.316406 338.128906 763.996094 338.425781 C 761.652344 336.367188 759.140625 334.542969 756.460938 332.945312 C 753.78125 331.351562 750.976562 330.015625 748.050781 328.941406 C 745.121094 327.863281 742.117188 327.066406 739.042969 326.542969 C 735.964844 326.023438 732.867188 325.785156 729.75 325.839844 C 733.171875 322.460938 737.058594 318.683594 742.121094 313.808594 C 750.601562 305.625 763.578125 293.917969 778.277344 286.746094 C 782.40625 284.632812 786.722656 283.007812 791.222656 281.878906 C 795.722656 280.746094 800.296875 280.136719 804.9375 280.046875 C 823.230469 280.046875 841.363281 287.589844 853.355469 293.921875 C 861.675781 298.285156 870.398438 301.589844 879.523438 303.832031 C 888.644531 306.078125 897.90625 307.195312 907.304688 307.191406 L 931.199219 307.191406 Z M 931.199219 397.707031 " fill-opacity="1" fill-rule="nonzero"/></g><path fill="#616363" d="M 744.316406 365.46875 C 743.636719 365.46875 742.964844 365.535156 742.296875 365.667969 C 741.632812 365.796875 740.988281 365.992188 740.359375 366.253906 C 739.730469 366.511719 739.136719 366.832031 738.574219 367.207031 C 738.007812 367.582031 737.484375 368.011719 737.007812 368.492188 C 736.527344 368.96875 736.097656 369.492188 735.722656 370.054688 C 735.34375 370.617188 735.023438 371.214844 734.765625 371.839844 C 734.507812 372.464844 734.308594 373.109375 734.175781 373.777344 C 734.046875 374.441406 733.980469 375.113281 733.980469 375.789062 C 733.980469 376.46875 734.046875 377.140625 734.175781 377.804688 C 734.308594 378.46875 734.507812 379.113281 734.765625 379.738281 C 735.027344 380.367188 735.34375 380.960938 735.722656 381.523438 C 736.097656 382.085938 736.527344 382.609375 737.007812 383.089844 C 737.484375 383.566406 738.007812 383.996094 738.574219 384.371094 C 739.136719 384.75 739.734375 385.066406 740.359375 385.324219 C 740.988281 385.585938 741.632812 385.78125 742.296875 385.914062 C 742.964844 386.046875 743.636719 386.113281 744.316406 386.113281 C 744.992188 386.113281 745.664062 386.046875 746.332031 385.914062 C 746.996094 385.78125 747.644531 385.585938 748.269531 385.324219 C 748.898438 385.066406 749.492188 384.75 750.058594 384.371094 C 750.621094 383.996094 751.144531 383.566406 751.625 383.089844 C 752.101562 382.609375 752.53125 382.085938 752.910156 381.523438 C 753.285156 380.960938 753.605469 380.367188 753.863281 379.738281 C 754.125 379.113281 754.320312 378.46875 754.453125 377.804688 C 754.585938 377.136719 754.652344 376.46875 754.652344 375.789062 C 754.652344 375.113281 754.585938 374.441406 754.453125 373.777344 C 754.320312 373.109375 754.125 372.464844 753.863281 371.839844 C 753.605469 371.214844 753.285156 370.617188 752.910156 370.054688 C 752.53125 369.492188 752.101562 368.96875 751.625 368.492188 C 751.144531 368.011719 750.621094 367.582031 750.058594 367.207031 C 749.492188 366.832031 748.898438 366.511719 748.269531 366.253906 C 747.644531 365.992188 746.996094 365.796875 746.332031 365.667969 C 745.664062 365.535156 744.992188 365.46875 744.316406 365.46875 Z M 744.316406 365.46875 " fill-opacity="1" fill-rule="nonzero"/><path fill="#616363" d="M 589.40625 369.496094 L 688.527344 369.496094 L 688.527344 377.957031 L 589.40625 377.957031 Z M 589.40625 369.496094 " fill-opacity="1" fill-rule="nonzero"/></svg>